<svg width="1000" height="400" xmlns="http://www.w3.org/2000/svg">
 <!-- Created with Method Draw - http://github.com/duopixel/Method-Draw/ -->

 <g>
  <title>background</title>
  <rect fill="none" id="canvas_background" height="402" width="1002" y="-1" x="-1"/>
  <g display="none" overflow="visible" y="0" x="0" height="100%" width="100%" id="canvasGrid">
   <rect fill="url(#gridpattern)" stroke-width="0" y="0" x="0" height="100%" width="100%"/>
  </g>
 </g>
 <g>
  <title>Layer 1</title>
  <style transform="matrix(0.01085069392704302,0,0,0.01085069392704302,0,0) " type="text/css">.st0{fill:#229954;}
	.st1{font-family:'Gentona-Bold';}
	.st2{font-size:60px;}
	.st3{letter-spacing:7.1;}
	.st4{letter-spacing:8;}
	.st5{fill:#229954;}
	.st6{fill:url(#SVGID_1_);}</style>
  <g stroke="null" transform="matrix(0.4587915624948135,0,0,0.5133692719237547,-11304.190654850125,-9364.120637112746) " id="svg_14">
   <path stroke="null" id="svg_15" d="m25423.223599,18299.102455l-43.7,56.8c-10,13 -25.5,20.6 -41.9,20.6l-80.4,0l0,220.3l-92.1,0l0,-220.3l-139.7,0l43.8,-56.8c10,-13 25.5,-20.6 41.9,-20.6l312.1,0z" class="st0"/>
   <path stroke="null" id="svg_16" d="m25297.623599,18393.002455c52.5,-14.2 74.3,-16.9 96.1,-16.9c64.5,0 91.7,26.3 91.7,89l0,131.7l-79.7,0l0,-25.4c-16.5,18.7 -35.2,29.4 -58.7,29.4c-44.9,0 -70.8,-15.6 -70.8,-68.5c0,-45.8 30.7,-67.2 91.7,-67.2l37.8,0c0,-18.7 -5.3,-28 -27.1,-28c-15.6,0 -38.7,3.1 -69,9.3l-12,-53.4zm81.4,109.9c-17.8,0 -28,4.9 -28,19.1c0,12.9 9.3,20.9 23.1,20.9c12.9,0 23.1,-5.8 31.6,-12.9l0,-27.1l-26.7,0z" class="st0"/>
   <path stroke="null" id="svg_17" d="m25858.823599,18455.702455c23.6,-9.3 38.3,-26.3 38.3,-52.5c0,-49.8 -38.3,-77.9 -106.3,-77.9l-117.6,0l0,34.9c28.7,2 46,13.7 56.2,30.1c7.4,11.8 11.1,26.1 12.9,40.8c1.1,9.2 1.5,18.6 1.5,27.7l0,138l50,0c77.4,0 120.6,-26.7 120.6,-73.9c0,-36 -18.3,-57.4 -55.6,-67.2zm-102.4,-65.4l34.3,0c17.8,0 27.6,7.1 27.6,20.5c0,13.4 -8,20.9 -22.2,20.9l-39.6,0l0,-41.4l-0.1,0zm0,94.4l39.6,0c20.9,0 32.5,8 32.5,22.2c0,15.6 -12,24 -33.8,24l-38.3,0l0,-46.2z" class="st0"/>
   <path stroke="null" id="svg_18" d="m25954.423599,18456.002455l-4.3,0c-0.8,7.1 -2.2,20.3 -1.5,26.7c0,0 4.4,3.5 5.6,-2.2c0,0 -0.9,-9.7 0.2,-24.5zm3.3,0c-1.1,14.3 -0.3,24 -0.3,24.2l0,0.5l-0.1,0.5c-1.2,5.4 -4.9,5.8 -6.1,5.8c-2.4,0 -4.4,-1.5 -4.7,-1.7l-1.1,-0.9l-0.1,-1.4c-0.7,-6.6 0.6,-19.8 1.5,-27.1l-13.8,0l0,140.8l83.2,0l0,-140.7l-58.5,0z" class="st0"/>
   <path stroke="null" id="svg_19" d="m25668.823599,18376.902455c-2.8,-0.2 -5.7,-0.3 -8.7,-0.3c0,0 0,0 0,0c-24.5,0 -45.4,10.2 -73.9,32.5l0,-28.9l-80.5,0l0,216.7l80.5,0l0,-124.7c10.7,-12 22.2,-20 36.1,-20c16,0 20,7.1 20,29.8l0,114.8l80.5,0l0,-138c0,-54.7 -15.1,-78.9 -54,-81.9z" class="st0"/>
   <path stroke="null" id="svg_20" d="m26025.523599,18324.502455c-27.7,21.9 -14.6,74.1 -21.4,98.6c-6.7,24.5 -44.7,29.2 -44.7,29.2c1.7,-45.3 29.2,-86.5 30,-87.8c-25.8,29.6 -33.2,67.3 -35,91.6c-1.1,14.7 -0.2,24.5 -0.2,24.5c-1.2,5.7 -5.6,2.2 -5.6,2.2c-0.7,-6.4 0.7,-19.6 1.5,-26.7c0.3,-2.8 0.6,-4.7 0.6,-4.7c-43.6,-90.2 73.2,-126.4 74.8,-126.9z" class="st5"/>
   <linearGradient stroke="null" transform="translate(-21.796390533447266,-44.802059173583984) translate(396.6943054199219,-56.48955154418945) translate(-7.275957614183426e-12,1.9479155540466309) translate(2.1796391010284424,107.1353530883789) translate(-1457.130126953125,36.582672119140625) translate(26089.576171875,0) translate(0,18109.828125) " y2="137.3423" x2="1010.4698" y1="263.3265" x1="960.7514" gradientUnits="userSpaceOnUse" id="svg_5">
    <stop stroke="null" stop-color="#229954" offset="0.2564"/>
    <stop stroke="null" stop-color="#FFFFFF" offset="1"/>
   </linearGradient>
   <path stroke="null" id="svg_21" d="m26025.523599,18324.502455c-27.7,21.9 -14.6,74.1 -21.4,98.6c-6.7,24.5 -44.7,29.2 -44.7,29.2c1.7,-45.3 29.2,-86.5 30,-87.8c-25.8,29.6 -33.2,67.3 -35,91.6c-1.1,14.7 -0.2,24.5 -0.2,24.5c-1.2,5.7 -5.6,2.2 -5.6,2.2c-0.7,-6.4 0.7,-19.6 1.5,-26.7c0.3,-2.8 0.6,-4.7 0.6,-4.7c-43.6,-90.2 73.2,-126.4 74.8,-126.9z" class="st6"/>
   <path stroke="null" id="svg_22" d="m26122.723599,18431.102455l-3.2,0l0,-35.3l72.8,0c16.7,0 32.4,-7.9 42.3,-21.3l36.5,-49l-232.8,0l0,271.2l81.5,0l0,-76.2l-0.3,0l0,-23.3l61,0c16.7,0 32.3,-7.9 42.3,-21.2l33.3,-44.6l-133.4,0l0,-0.3z" class="st0"/>
  </g>
  <text stroke="#000" transform="matrix(2.0960904607673205,0,0,4.511430672187985,-233.30360246789573,-927.5129444398357) " font-weight="bold" xml:space="preserve" text-anchor="start" font-family="'Times New Roman', Times, serif" font-size="26" id="svg_24" y="276.545955" x="111.334967" stroke-width="0" fill="#007f3f">Tanzania Biodiversity Information Facility</text>
 </g>
</svg>